<?xml version="1.0" encoding="UTF-8"?>
<!DOCTYPE svg PUBLIC "-//W3C//DTD SVG 1.1//EN" "http://www.w3.org/Graphics/SVG/1.1/DTD/svg11.dtd">
<svg xmlns="http://www.w3.org/2000/svg" version="1.1" width="500px" height="500px" style="shape-rendering:geometricPrecision; text-rendering:geometricPrecision; image-rendering:optimizeQuality; fill-rule:evenodd; clip-rule:evenodd" xmlns:xlink="http://www.w3.org/1999/xlink">
<g><path style="opacity:0.999" fill="#f2f2f3" d="M 180.5,201.5 C 179.833,207.5 179.167,213.5 178.5,219.5C 176.143,219.337 173.81,219.503 171.5,220C 170.944,220.383 170.611,220.883 170.5,221.5C 169.167,223.5 169.167,225.5 170.5,227.5C 171.058,228.79 172.058,229.623 173.5,230C 171.942,230.21 170.609,230.71 169.5,231.5C 168.833,231.5 168.5,231.833 168.5,232.5C 167.883,232.611 167.383,232.944 167,233.5C 166.172,250.672 166.338,267.672 167.5,284.5C 167.5,285.167 167.833,285.5 168.5,285.5C 170.417,287.745 172.75,288.078 175.5,286.5C 176.298,286.043 176.631,285.376 176.5,284.5C 177.833,267.5 177.833,250.5 176.5,233.5C 176.5,232.167 175.833,231.5 174.5,231.5C 175.209,230.596 176.209,230.263 177.5,230.5C 178.29,231.401 179.29,232.068 180.5,232.5C 180.333,248.503 180.5,264.503 181,280.5C 204.39,297.556 228.056,314.222 252,330.5C 276.305,313.695 300.472,296.695 324.5,279.5C 325.483,265.215 325.816,250.882 325.5,236.5C 302.724,242.592 280.224,249.592 258,257.5C 257.536,256.906 257.369,256.239 257.5,255.5C 257.833,254.833 258.167,254.167 258.5,253.5C 264.166,252.61 269.5,250.943 274.5,248.5C 279.784,247.405 284.784,245.739 289.5,243.5C 293.784,242.739 297.784,241.405 301.5,239.5C 303.786,239.405 305.786,238.738 307.5,237.5C 314.868,235.539 322.202,233.705 329.5,232C 328.342,249.76 328.175,267.593 329,285.5C 332.579,288.373 335.745,288.04 338.5,284.5C 338.83,267.325 338.497,250.325 337.5,233.5C 336.64,231.386 334.973,230.22 332.5,230C 333.056,229.617 333.389,229.117 333.5,228.5C 335.439,227.986 336.439,226.653 336.5,224.5C 336.439,222.347 335.439,221.014 333.5,220.5C 331.393,219.532 329.059,219.198 326.5,219.5C 326.5,219.167 326.5,218.833 326.5,218.5C 329.615,216.965 332.949,216.131 336.5,216C 338.192,220.074 339.692,224.24 341,228.5C 341.833,248.508 341.666,268.508 340.5,288.5C 311.008,309.413 281.341,330.08 251.5,350.5C 222.675,329.921 193.675,309.587 164.5,289.5C 163.167,257.167 163.167,224.833 164.5,192.5C 194.5,172.167 224.5,151.833 254.5,131.5C 282.64,151.807 310.64,172.307 338.5,193C 334.95,196.883 331.783,201.049 329,205.5C 303.721,187.887 278.721,169.887 254,151.5C 229.558,168.3 205.058,184.967 180.5,201.5 Z M 180.5,232.5 C 181.5,232.5 182.5,232.5 183.5,232.5C 184.167,232.5 184.833,232.5 185.5,232.5C 191.341,234.669 197.341,236.669 203.5,238.5C 210.421,241.029 217.421,243.363 224.5,245.5C 233.833,248.5 243.167,251.5 252.5,254.5C 252.833,254.5 253.167,254.5 253.5,254.5C 254.568,255.434 255.901,255.768 257.5,255.5C 257.369,256.239 257.536,256.906 258,257.5C 280.224,249.592 302.724,242.592 325.5,236.5C 325.816,250.882 325.483,265.215 324.5,279.5C 300.472,296.695 276.305,313.695 252,330.5C 228.056,314.222 204.39,297.556 181,280.5C 180.5,264.503 180.333,248.503 180.5,232.5 Z"/></g>
<g><path style="opacity:0.71" fill="#9b9b9b" d="M 180.5,201.5 C 180.5,207.833 180.5,214.167 180.5,220.5C 179.508,220.672 178.842,220.338 178.5,219.5C 179.167,213.5 179.833,207.5 180.5,201.5 Z"/></g>
<g><path style="opacity:1" fill="#3a263d" d="M 178.5,219.5 C 178.842,220.338 179.508,220.672 180.5,220.5C 181.5,220.833 182.167,221.5 182.5,222.5C 181.504,222.586 180.671,222.252 180,221.5C 179.667,223.5 179.333,225.5 179,227.5C 179.544,220.77 176.71,218.77 170.5,221.5C 170.611,220.883 170.944,220.383 171.5,220C 173.81,219.503 176.143,219.337 178.5,219.5 Z"/></g>
<g><path style="opacity:1" fill="#38263b" d="M 326.5,219.5 C 329.059,219.198 331.393,219.532 333.5,220.5C 327.879,220.734 322.213,222.068 316.5,224.5C 316.167,224.5 315.833,224.5 315.5,224.5C 319.083,222.64 322.749,220.973 326.5,219.5 Z"/></g>
<g><path style="opacity:1" fill="#d461c2" d="M 182.5,222.5 C 185.85,223.503 189.183,224.503 192.5,225.5C 191.748,227.1 190.748,228.6 189.5,230C 190.654,230.914 190.487,231.747 189,232.5C 188.014,231.829 186.847,231.829 185.5,232.5C 184.833,232.5 184.167,232.5 183.5,232.5C 181.898,230.926 179.898,230.259 177.5,230.5C 175.718,228.643 173.385,227.643 170.5,227.5C 169.167,225.5 169.167,223.5 170.5,221.5C 176.71,218.77 179.544,220.77 179,227.5C 179.333,225.5 179.667,223.5 180,221.5C 180.671,222.252 181.504,222.586 182.5,222.5 Z"/></g>
<g><path style="opacity:1" fill="#db61c1" d="M 333.5,220.5 C 334.833,223.167 334.833,225.833 333.5,228.5C 328.464,229.957 323.464,231.623 318.5,233.5C 317.18,231.283 316.18,229.117 315.5,227C 316.252,226.329 316.586,225.496 316.5,224.5C 322.213,222.068 327.879,220.734 333.5,220.5 Z"/></g>
<g><path style="opacity:1" fill="#885882" d="M 333.5,220.5 C 335.439,221.014 336.439,222.347 336.5,224.5C 336.439,226.653 335.439,227.986 333.5,228.5C 334.833,225.833 334.833,223.167 333.5,220.5 Z"/></g>
<g><path style="opacity:1" fill="#492c49" d="M 170.5,227.5 C 173.385,227.643 175.718,228.643 177.5,230.5C 176.209,230.263 175.209,230.596 174.5,231.5C 172.833,231.5 171.167,231.5 169.5,231.5C 170.609,230.71 171.942,230.21 173.5,230C 172.058,229.623 171.058,228.79 170.5,227.5 Z"/></g>
<g><path style="opacity:1" fill="#bb66cd" d="M 192.5,225.5 C 197.393,226.796 202.06,228.462 206.5,230.5C 205.943,232.939 204.943,235.606 203.5,238.5C 197.341,236.669 191.341,234.669 185.5,232.5C 186.847,231.829 188.014,231.829 189,232.5C 190.487,231.747 190.654,230.914 189.5,230C 190.748,228.6 191.748,227.1 192.5,225.5 Z"/></g>
<g><path style="opacity:1" fill="#ba63c9" d="M 314.5,224.5 C 314.833,224.5 315.167,224.5 315.5,224.5C 315.833,224.5 316.167,224.5 316.5,224.5C 316.586,225.496 316.252,226.329 315.5,227C 316.18,229.117 317.18,231.283 318.5,233.5C 314.463,234.065 310.797,235.399 307.5,237.5C 305.786,238.738 303.786,239.405 301.5,239.5C 301.918,238.778 302.584,238.278 303.5,238C 302.703,235.515 301.703,233.015 300.5,230.5C 305.249,228.695 309.915,226.695 314.5,224.5 Z"/></g>
<g><path style="opacity:0.992" fill="#d8d7d9" d="M 326.5,218.5 C 326.5,218.833 326.5,219.167 326.5,219.5C 322.749,220.973 319.083,222.64 315.5,224.5C 315.167,224.5 314.833,224.5 314.5,224.5C 298.823,228.726 283.489,233.726 268.5,239.5C 263.835,240.057 259.502,241.39 255.5,243.5C 254.167,243.5 253.5,242.833 253.5,241.5C 277.773,233.631 302.106,225.965 326.5,218.5 Z"/></g>
<g><path style="opacity:1" fill="#df61be" d="M 169.5,231.5 C 171.167,231.5 172.833,231.5 174.5,231.5C 175.833,231.5 176.5,232.167 176.5,233.5C 176.747,235.858 176.081,237.858 174.5,239.5C 172.833,239.5 171.167,239.5 169.5,239.5C 169.167,238.5 168.5,237.833 167.5,237.5C 167.629,235.784 167.962,234.117 168.5,232.5C 168.5,231.833 168.833,231.5 169.5,231.5 Z"/></g>
<g><path style="opacity:0.153" fill="#4f3d4f" d="M 177.5,230.5 C 179.898,230.259 181.898,230.926 183.5,232.5C 182.5,232.5 181.5,232.5 180.5,232.5C 179.29,232.068 178.29,231.401 177.5,230.5 Z"/></g>
<g><path style="opacity:1" fill="#e864c5" d="M 337.5,233.5 C 338.373,238.294 336.373,240.627 331.5,240.5C 328.467,236.836 328.967,233.836 333,231.5C 334.585,232.044 336.085,232.711 337.5,233.5 Z"/></g>
<g><path style="opacity:1" fill="#9c62cd" d="M 300.5,230.5 C 301.703,233.015 302.703,235.515 303.5,238C 302.584,238.278 301.918,238.778 301.5,239.5C 297.784,241.405 293.784,242.739 289.5,243.5C 288.272,241.99 288.272,240.49 289.5,239C 287.859,237.871 286.859,236.371 286.5,234.5C 291.061,232.859 295.728,231.526 300.5,230.5 Z"/></g>
<g><path style="opacity:1" fill="#412c49" d="M 333.5,228.5 C 333.389,229.117 333.056,229.617 332.5,230C 334.973,230.22 336.64,231.386 337.5,233.5C 336.085,232.711 334.585,232.044 333,231.5C 328.967,233.836 328.467,236.836 331.5,240.5C 329.631,242.635 328.964,245.302 329.5,248.5C 329.5,254.5 329.5,260.5 329.5,266.5C 329.183,270.702 329.517,274.702 330.5,278.5C 328.662,285.669 330.995,287.669 337.5,284.5C 337.833,284.5 338.167,284.5 338.5,284.5C 335.745,288.04 332.579,288.373 329,285.5C 328.175,267.593 328.342,249.76 329.5,232C 322.202,233.705 314.868,235.539 307.5,237.5C 310.797,235.399 314.463,234.065 318.5,233.5C 323.464,231.623 328.464,229.957 333.5,228.5 Z"/></g>
<g><path style="opacity:1" fill="#9a65d2" d="M 206.5,230.5 C 215.075,232.721 223.408,235.387 231.5,238.5C 229.345,238.372 227.345,238.872 225.5,240C 224.359,240.741 224.359,241.575 225.5,242.5C 223.565,243.213 223.232,244.213 224.5,245.5C 217.421,243.363 210.421,241.029 203.5,238.5C 204.943,235.606 205.943,232.939 206.5,230.5 Z"/></g>
<g><path style="opacity:1" fill="#392a42" d="M 314.5,224.5 C 309.915,226.695 305.249,228.695 300.5,230.5C 295.728,231.526 291.061,232.859 286.5,234.5C 281.521,235.569 276.854,237.235 272.5,239.5C 271.167,239.5 269.833,239.5 268.5,239.5C 283.489,233.726 298.823,228.726 314.5,224.5 Z"/></g>
<g><path style="opacity:1" fill="#6e5e78" d="M 168.5,232.5 C 167.962,234.117 167.629,235.784 167.5,237.5C 167.5,253.167 167.5,268.833 167.5,284.5C 166.338,267.672 166.172,250.672 167,233.5C 167.383,232.944 167.883,232.611 168.5,232.5 Z"/></g>
<g><path style="opacity:1" fill="#8062d1" d="M 286.5,234.5 C 286.859,236.371 287.859,237.871 289.5,239C 288.272,240.49 288.272,241.99 289.5,243.5C 284.784,245.739 279.784,247.405 274.5,248.5C 276.752,247.043 276.419,245.543 273.5,244C 274.167,243.667 274.833,243.333 275.5,243C 273.944,242.28 272.944,241.113 272.5,239.5C 276.854,237.235 281.521,235.569 286.5,234.5 Z"/></g>
<g><path style="opacity:1" fill="#2a1f37" d="M 176.5,233.5 C 177.833,250.5 177.833,267.5 176.5,284.5C 176.975,281.687 175.975,279.687 173.5,278.5C 173.5,278.167 173.5,277.833 173.5,277.5C 174.496,277.414 175.329,277.748 176,278.5C 176.498,275.518 176.665,272.518 176.5,269.5C 176.5,264.167 176.5,258.833 176.5,253.5C 176.5,252.167 176.5,250.833 176.5,249.5C 177.069,245.671 176.402,242.337 174.5,239.5C 176.081,237.858 176.747,235.858 176.5,233.5 Z"/></g>
<g><path style="opacity:1" fill="#19111e" d="M 337.5,233.5 C 338.497,250.325 338.83,267.325 338.5,284.5C 338.167,284.5 337.833,284.5 337.5,284.5C 337.675,282.379 337.341,280.379 336.5,278.5C 337.482,275.038 337.815,271.371 337.5,267.5C 337.5,261.167 337.5,254.833 337.5,248.5C 337.813,245.753 337.48,243.086 336.5,240.5C 334.684,241.735 333.017,241.735 331.5,240.5C 336.373,240.627 338.373,238.294 337.5,233.5 Z"/></g>
<g><path style="opacity:1" fill="#914486" d="M 169.5,239.5 C 171.167,239.5 172.833,239.5 174.5,239.5C 176.402,242.337 177.069,245.671 176.5,249.5C 175.523,246.713 175.19,243.713 175.5,240.5C 173.265,240.795 171.265,240.461 169.5,239.5 Z"/></g>
<g><path style="opacity:1" fill="#726ae8" d="M 231.5,238.5 C 236.499,239.833 241.499,241.166 246.5,242.5C 248.291,243.391 250.124,244.391 252,245.5C 252.498,248.482 252.665,251.482 252.5,254.5C 243.167,251.5 233.833,248.5 224.5,245.5C 223.232,244.213 223.565,243.213 225.5,242.5C 224.359,241.575 224.359,240.741 225.5,240C 227.345,238.872 229.345,238.372 231.5,238.5 Z"/></g>
<g><path style="opacity:1" fill="#6d6cf1" d="M 268.5,239.5 C 269.833,239.5 271.167,239.5 272.5,239.5C 272.944,241.113 273.944,242.28 275.5,243C 274.833,243.333 274.167,243.667 273.5,244C 276.419,245.543 276.752,247.043 274.5,248.5C 268.834,249.39 263.5,251.057 258.5,253.5C 256.883,254.038 255.216,254.371 253.5,254.5C 254.097,251.059 254.763,247.725 255.5,244.5C 260.011,243.069 264.345,241.402 268.5,239.5 Z"/></g>
<g><path style="opacity:1" fill="#382f54" d="M 268.5,239.5 C 264.345,241.402 260.011,243.069 255.5,244.5C 255.5,244.167 255.5,243.833 255.5,243.5C 259.502,241.39 263.835,240.057 268.5,239.5 Z"/></g>
<g><path style="opacity:1" fill="#17151a" d="M 253.5,241.5 C 253.5,242.833 254.167,243.5 255.5,243.5C 255.5,243.833 255.5,244.167 255.5,244.5C 254.763,247.725 254.097,251.059 253.5,254.5C 253.167,254.5 252.833,254.5 252.5,254.5C 252.665,251.482 252.498,248.482 252,245.5C 250.124,244.391 248.291,243.391 246.5,242.5C 249.277,243.528 251.61,243.195 253.5,241.5 Z"/></g>
<g><path style="opacity:1" fill="#d268d2" d="M 331.5,240.5 C 333.017,241.735 334.684,241.735 336.5,240.5C 337.48,243.086 337.813,245.753 337.5,248.5C 334.366,249.349 331.699,249.349 329.5,248.5C 328.964,245.302 329.631,242.635 331.5,240.5 Z"/></g>
<g><path style="opacity:1" fill="#c467d3" d="M 169.5,239.5 C 171.265,240.461 173.265,240.795 175.5,240.5C 175.19,243.713 175.523,246.713 176.5,249.5C 176.5,250.833 176.5,252.167 176.5,253.5C 173.955,252.596 171.289,252.596 168.5,253.5C 168.181,248.637 168.514,243.97 169.5,239.5 Z"/></g>
<g><path style="opacity:1" fill="#392f4d" d="M 274.5,248.5 C 269.5,250.943 264.166,252.61 258.5,253.5C 263.5,251.057 268.834,249.39 274.5,248.5 Z"/></g>
<g><path style="opacity:0.071" fill="#443c46" d="M 258.5,253.5 C 258.167,254.167 257.833,254.833 257.5,255.5C 255.901,255.768 254.568,255.434 253.5,254.5C 255.216,254.371 256.883,254.038 258.5,253.5 Z"/></g>
<g><path style="opacity:1" fill="#a166d8" d="M 176.5,253.5 C 176.5,258.833 176.5,264.167 176.5,269.5C 175.894,266.833 175.061,264.166 174,261.5C 172.667,264.167 171.333,264.167 170,261.5C 169.617,262.056 169.117,262.389 168.5,262.5C 168.5,259.5 168.5,256.5 168.5,253.5C 171.289,252.596 173.955,252.596 176.5,253.5 Z"/></g>
<g><path style="opacity:1" fill="#49336e" d="M 167.5,237.5 C 168.5,237.833 169.167,238.5 169.5,239.5C 168.514,243.97 168.181,248.637 168.5,253.5C 168.5,256.5 168.5,259.5 168.5,262.5C 168.173,267.544 168.506,272.544 169.5,277.5C 170.865,276.193 172.198,276.193 173.5,277.5C 173.5,277.833 173.5,278.167 173.5,278.5C 171.856,278.286 170.356,278.62 169,279.5C 168.505,281.473 168.338,283.473 168.5,285.5C 167.833,285.5 167.5,285.167 167.5,284.5C 167.5,268.833 167.5,253.167 167.5,237.5 Z"/></g>
<g><path style="opacity:1" fill="#a56be2" d="M 337.5,248.5 C 337.5,254.833 337.5,261.167 337.5,267.5C 334.972,266.787 332.305,266.454 329.5,266.5C 329.5,260.5 329.5,254.5 329.5,248.5C 331.699,249.349 334.366,249.349 337.5,248.5 Z"/></g>
<g><path style="opacity:1" fill="#846ae8" d="M 176.5,269.5 C 176.665,272.518 176.498,275.518 176,278.5C 175.329,277.748 174.496,277.414 173.5,277.5C 172.198,276.193 170.865,276.193 169.5,277.5C 168.506,272.544 168.173,267.544 168.5,262.5C 169.117,262.389 169.617,262.056 170,261.5C 171.333,264.167 172.667,264.167 174,261.5C 175.061,264.166 175.894,266.833 176.5,269.5 Z"/></g>
<g><path style="opacity:1" fill="#816cec" d="M 329.5,266.5 C 332.305,266.454 334.972,266.787 337.5,267.5C 337.815,271.371 337.482,275.038 336.5,278.5C 334.5,275.833 332.5,275.833 330.5,278.5C 329.517,274.702 329.183,270.702 329.5,266.5 Z"/></g>
<g><path style="opacity:1" fill="#3e3778" d="M 336.5,278.5 C 334.5,278.5 332.5,278.5 330.5,278.5C 332.5,275.833 334.5,275.833 336.5,278.5 Z"/></g>
<g><path style="opacity:1" fill="#5c62da" d="M 173.5,278.5 C 175.975,279.687 176.975,281.687 176.5,284.5C 176.631,285.376 176.298,286.043 175.5,286.5C 172.75,288.078 170.417,287.745 168.5,285.5C 168.338,283.473 168.505,281.473 169,279.5C 170.356,278.62 171.856,278.286 173.5,278.5 Z"/></g>
<g><path style="opacity:1" fill="#626df6" d="M 330.5,278.5 C 332.5,278.5 334.5,278.5 336.5,278.5C 337.341,280.379 337.675,282.379 337.5,284.5C 330.995,287.669 328.662,285.669 330.5,278.5 Z"/></g>
</svg>
